<?xml version="1.0" encoding="utf-8"?>
<!-- Generator: Adobe Illustrator 21.1.0, SVG Export Plug-In . SVG Version: 6.00 Build 0)  -->
<svg version="1.1" xmlns="http://www.w3.org/2000/svg" xmlns:xlink="http://www.w3.org/1999/xlink" x="0px" y="0px"
	 viewBox="0 0 931.8 706" style="enable-background:new 0 0 931.8 706;" xml:space="preserve">
<style type="text/css">
	.st0{opacity:3.000000e-02;}
	.st1{opacity:6.000000e-02;}
	.st2{opacity:0.11;}
	.st3{opacity:8.000000e-02;}
	.st4{opacity:0.12;}
	.st5{opacity:4.000000e-02;}
</style>
<g id="Capa_2">
</g>
<g id="Capa_3">
</g>
<g id="Capa_1">
	<polygon class="st0" points="898.3,178.6 864.9,234 931.8,234 	"/>
	<polygon class="st0" points="862.3,234 862.5,234 897,177 827.8,177 	"/>
	<polygon class="st1" points="898.3,174.8 932.7,118 864,118 	"/>
	<polygon class="st0" points="828.7,175 896.1,175 862.4,119.2 	"/>
	<polygon class="st2" points="792.5,234 860,234 826.3,178.2 	"/>
	<polygon class="st2" points="756,177 790.3,233.8 824.7,177 	"/>
	<polygon class="st0" points="720.7,234 788.1,234 754.4,178.2 	"/>
	<polygon class="st0" points="718.2,234 718.4,234 752.9,177 683.7,177 	"/>
	<polygon class="st0" points="684.5,175 752,175 718.3,119.2 	"/>
	<polygon class="st1" points="898.3,60.6 864.9,116 931.8,116 	"/>
	<polygon class="st2" points="827.8,59 862.3,116 862.5,116 897,59 	"/>
	<polygon class="st1" points="932.7,0 864,0 898.3,56.8 	"/>
	<polygon class="st1" points="896.1,57 862.4,1.2 828.7,57 	"/>
	<polygon class="st0" points="756.9,175 823.8,175 790.3,119.6 	"/>
	<polygon class="st0" points="791.7,118 826.2,175 826.4,175 860.9,118 	"/>
	<polygon class="st0" points="754.3,175 754.5,175 789,118 719.8,118 	"/>
	<polygon class="st0" points="792.5,116 860,116 826.3,60.2 	"/>
	<polygon class="st0" points="790.3,115.8 824.7,59 756,59 	"/>
	<polygon class="st0" points="720.7,116 788.1,116 754.4,60.2 	"/>
	<polygon class="st0" points="718.2,116 718.4,116 752.9,59 683.7,59 	"/>
	<polygon class="st0" points="752,57 718.3,1.2 684.5,57 	"/>
	<polygon class="st0" points="823.8,57 790.3,1.6 756.9,57 	"/>
	<polygon class="st1" points="826.4,57 860.9,0 791.7,0 826.2,57 	"/>
	<polygon class="st0" points="754.5,57 789,0 719.8,0 754.3,57 	"/>
	<polygon class="st0" points="898.3,414.6 864.9,470 931.8,470 	"/>
	<polygon class="st0" points="862.3,470 862.5,470 897,413 827.8,413 	"/>
	<polygon class="st0" points="898.3,410.8 932.7,354 864,354 	"/>
	<polygon class="st0" points="828.7,411 896.1,411 862.4,355.2 	"/>
	<polygon class="st3" points="792.5,470 860,470 826.3,414.2 	"/>
	<polygon class="st0" points="756,413 790.3,469.8 824.7,413 	"/>
	<polygon class="st1" points="754.4,414.2 720.7,470 788.1,470 	"/>
	<polygon class="st1" points="718.4,470 752.9,413 683.7,413 718.2,470 	"/>
	<polygon class="st0" points="718.3,355.2 684.5,411 752,411 	"/>
	<polygon class="st0" points="898.3,296.6 864.9,352 931.8,352 	"/>
	<polygon class="st4" points="862.3,352 862.5,352 897,295 827.8,295 	"/>
	<polygon class="st0" points="898.3,292.8 932.7,236 864,236 	"/>
	<polygon class="st4" points="828.7,293 896.1,293 862.4,237.2 	"/>
	<polygon class="st4" points="756.9,411 823.8,411 790.3,355.6 	"/>
	<polygon class="st0" points="791.7,354 826.2,411 826.4,411 860.9,354 	"/>
	<polygon class="st4" points="719.8,354 754.3,411 754.5,411 789,354 	"/>
	<polygon class="st1" points="792.5,352 860,352 826.3,296.2 	"/>
	<polygon class="st1" points="756,295 790.3,351.8 824.7,295 	"/>
	<polygon class="st0" points="720.7,352 788.1,352 754.4,296.2 	"/>
	<polygon class="st5" points="683.7,295 718.2,352 718.4,352 752.9,295 	"/>
	<polygon class="st3" points="684.5,293 752,293 718.3,237.2 	"/>
	<polygon class="st0" points="756.9,293 823.8,293 790.3,237.6 	"/>
	<polygon class="st0" points="791.7,236 826.2,293 826.4,293 860.9,236 	"/>
	<polygon class="st0" points="719.8,236 754.3,293 754.5,293 789,236 	"/>
	<polygon class="st4" points="864.9,706 931.8,706 898.3,650.6 	"/>
	<polygon class="st1" points="827.8,649 862.3,706 862.5,706 897,649 	"/>
	<polygon class="st2" points="898.3,646.8 932.7,590 864,590 	"/>
	<polygon class="st1" points="862.4,591.2 828.7,647 896.1,647 	"/>
	<polygon class="st1" points="792.5,706 860,706 826.3,650.2 	"/>
	<polygon class="st0" points="756,649 790.3,705.8 824.7,649 	"/>
	<polygon class="st4" points="720.7,706 788.1,706 754.4,650.2 	"/>
	<polygon class="st2" points="683.7,649 718.2,706 718.4,706 752.9,649 	"/>
	<polygon class="st2" points="718.3,591.2 684.5,647 752,647 	"/>
	<polygon class="st0" points="898.3,532.6 864.9,588 931.8,588 	"/>
	<polygon class="st0" points="862.3,588 862.5,588 897,531 827.8,531 	"/>
	<polygon class="st0" points="898.3,528.8 932.7,472 864,472 	"/>
	<polygon class="st0" points="828.7,529 896.1,529 862.4,473.2 	"/>
	<polygon class="st0" points="790.3,591.6 756.9,647 823.8,647 	"/>
	<polygon class="st0" points="826.4,647 860.9,590 791.7,590 826.2,647 	"/>
	<polygon class="st0" points="754.5,647 789,590 719.8,590 754.3,647 	"/>
	<polygon class="st4" points="826.3,532.2 792.5,588 860,588 	"/>
	<polygon class="st0" points="824.7,531 756,531 790.3,587.8 	"/>
	<polygon class="st0" points="754.4,532.2 720.7,588 788.1,588 	"/>
	<polygon class="st0" points="718.4,588 752.9,531 683.7,531 718.2,588 	"/>
	<polygon class="st0" points="718.3,473.2 684.5,529 752,529 	"/>
	<polygon class="st0" points="790.3,473.6 756.9,529 823.8,529 	"/>
	<polygon class="st2" points="791.7,472 826.2,529 826.4,529 860.9,472 	"/>
	<polygon class="st1" points="754.5,529 789,472 719.8,472 754.3,529 	"/>
	<polygon class="st0" points="648.9,234 715.8,234 682.3,178.6 	"/>
	<polygon class="st0" points="646.3,234 646.5,234 681,177 611.8,177 	"/>
	<polygon class="st0" points="682.3,174.8 716.7,118 648,118 	"/>
	<polygon class="st3" points="612.7,175 680.1,175 646.4,119.2 	"/>
	<polygon class="st5" points="576.5,234 644,234 610.3,178.2 	"/>
	<polygon class="st5" points="574.3,233.8 608.7,177 540,177 	"/>
	<polygon class="st1" points="504.7,234 572.1,234 538.4,178.2 	"/>
	<polygon class="st0" points="502.2,234 502.4,234 536.9,177 467.7,177 	"/>
	<polygon class="st0" points="468.5,175 536,175 502.3,119.2 	"/>
	<polygon class="st3" points="648.9,116 715.8,116 682.3,60.6 	"/>
	<polygon class="st0" points="646.3,116 646.5,116 681,59 611.8,59 	"/>
	<polygon class="st0" points="716.7,0 648,0 682.3,56.8 	"/>
	<polygon class="st1" points="680.1,57 646.4,1.2 612.7,57 	"/>
	<polygon class="st1" points="540.9,175 607.8,175 574.3,119.6 	"/>
	<polygon class="st0" points="610.2,175 610.4,175 644.9,118 575.7,118 	"/>
	<polygon class="st0" points="538.3,175 538.5,175 573,118 503.8,118 	"/>
	<polygon class="st0" points="576.5,116 644,116 610.3,60.2 	"/>
	<polygon class="st1" points="574.3,115.8 608.7,59 540,59 	"/>
	<polygon class="st4" points="504.7,116 572.1,116 538.4,60.2 	"/>
	<polygon class="st4" points="502.2,116 502.4,116 536.9,59 467.7,59 	"/>
	<polygon class="st1" points="536,57 502.3,1.2 468.5,57 	"/>
	<polygon class="st1" points="607.8,57 574.3,1.6 540.9,57 	"/>
	<polygon class="st1" points="610.4,57 644.9,0 575.7,0 610.2,57 	"/>
	<polygon class="st1" points="538.5,57 573,0 503.8,0 538.3,57 	"/>
	<polygon class="st1" points="682.3,414.6 648.9,470 715.8,470 	"/>
	<polygon class="st1" points="646.5,470 681,413 611.8,413 646.3,470 	"/>
	<polygon class="st0" points="716.7,354 648,354 682.3,410.8 	"/>
	<polygon class="st0" points="646.4,355.2 612.7,411 680.1,411 	"/>
	<polygon class="st1" points="610.3,414.2 576.5,470 644,470 	"/>
	<polygon class="st1" points="608.7,413 540,413 574.3,469.8 	"/>
	<polygon class="st2" points="538.4,414.2 504.7,470 572.1,470 	"/>
	<polygon class="st2" points="502.4,470 536.9,413 467.7,413 502.2,470 	"/>
	<polygon class="st1" points="502.3,355.2 468.5,411 536,411 	"/>
	<polygon class="st2" points="682.3,296.6 648.9,352 715.8,352 	"/>
	<polygon class="st2" points="646.3,352 646.5,352 681,295 611.8,295 	"/>
	<polygon class="st3" points="682.3,292.8 716.7,236 648,236 	"/>
	<polygon class="st4" points="612.7,293 680.1,293 646.4,237.2 	"/>
	<polygon class="st3" points="574.3,355.6 540.9,411 607.8,411 	"/>
	<polygon class="st0" points="610.4,411 644.9,354 575.7,354 610.2,411 	"/>
	<polygon class="st0" points="538.5,411 573,354 503.8,354 538.3,411 	"/>
	<polygon class="st0" points="576.5,352 644,352 610.3,296.2 	"/>
	<polygon class="st0" points="574.3,351.8 608.7,295 540,295 	"/>
	<polygon class="st1" points="504.7,352 572.1,352 538.4,296.2 	"/>
	<polygon class="st1" points="502.2,352 502.4,352 536.9,295 467.7,295 	"/>
	<polygon class="st4" points="468.5,293 536,293 502.3,237.2 	"/>
	<polygon class="st4" points="540.9,293 607.8,293 574.3,237.6 	"/>
	<polygon class="st4" points="610.2,293 610.4,293 644.9,236 575.7,236 	"/>
	<polygon class="st4" points="538.3,293 538.5,293 573,236 503.8,236 	"/>
	<polygon class="st1" points="648.9,706 715.8,706 682.3,650.6 	"/>
	<polygon class="st1" points="611.8,649 646.3,706 646.5,706 681,649 	"/>
	<polygon class="st4" points="716.7,590 648,590 682.3,646.8 	"/>
	<polygon class="st0" points="646.4,591.2 612.7,647 680.1,647 	"/>
	<polygon class="st1" points="576.5,706 644,706 610.3,650.2 	"/>
	<polygon class="st1" points="540,649 574.3,705.8 608.7,649 	"/>
	<polygon class="st0" points="504.7,706 572.1,706 538.4,650.2 	"/>
	<polygon class="st0" points="467.7,649 502.2,706 502.4,706 536.9,649 	"/>
	<polygon class="st0" points="502.3,591.2 468.5,647 536,647 	"/>
	<polygon class="st0" points="682.3,532.6 648.9,588 715.8,588 	"/>
	<polygon class="st0" points="646.5,588 681,531 611.8,531 646.3,588 	"/>
	<polygon class="st0" points="716.7,472 648,472 682.3,528.8 	"/>
	<polygon class="st0" points="646.4,473.2 612.7,529 680.1,529 	"/>
	<polygon class="st0" points="574.3,591.6 540.9,647 607.8,647 	"/>
	<polygon class="st0" points="610.4,647 644.9,590 575.7,590 610.2,647 	"/>
	<polygon class="st0" points="538.5,647 573,590 503.8,590 538.3,647 	"/>
	<polygon class="st0" points="610.3,532.2 576.5,588 644,588 	"/>
	<polygon class="st0" points="608.7,531 540,531 574.3,587.8 	"/>
	<polygon class="st0" points="538.4,532.2 504.7,588 572.1,588 	"/>
	<polygon class="st0" points="502.4,588 536.9,531 467.7,531 502.2,588 	"/>
	<polygon class="st0" points="502.3,473.2 468.5,529 536,529 	"/>
	<polygon class="st3" points="574.3,473.6 540.9,529 607.8,529 	"/>
	<polygon class="st0" points="610.4,529 644.9,472 575.7,472 610.2,529 	"/>
	<polygon class="st0" points="538.5,529 573,472 503.8,472 538.3,529 	"/>
	<polygon class="st0" points="432.9,234 499.8,234 466.3,178.6 	"/>
	<polygon class="st0" points="430.3,234 430.5,234 465,177 395.8,177 	"/>
	<polygon class="st0" points="466.3,174.8 500.7,118 432,118 	"/>
	<polygon class="st1" points="396.7,175 464.1,175 430.4,119.2 	"/>
	<polygon class="st3" points="360.5,234 428,234 394.3,178.2 	"/>
	<polygon class="st0" points="358.3,233.8 392.7,177 324,177 	"/>
	<polygon class="st5" points="288.7,234 356.1,234 322.4,178.2 	"/>
	<polygon class="st5" points="286.2,234 286.4,234 320.9,177 251.7,177 	"/>
	<polygon class="st5" points="252.5,175 320,175 286.3,119.2 	"/>
	<polygon class="st5" points="432.9,116 499.8,116 466.3,60.6 	"/>
	<polygon class="st5" points="430.3,116 430.5,116 465,59 395.8,59 	"/>
	<polygon class="st0" points="500.7,0 432,0 466.3,56.8 	"/>
	<polygon class="st0" points="464.1,57 430.4,1.2 396.7,57 	"/>
	<polygon class="st5" points="324.9,175 391.8,175 358.3,119.6 	"/>
	<polygon class="st0" points="394.2,175 394.4,175 428.9,118 359.7,118 	"/>
	<polygon class="st5" points="322.3,175 322.5,175 357,118 287.8,118 	"/>
	<polygon class="st5" points="360.5,116 428,116 394.3,60.2 	"/>
	<polygon class="st1" points="358.3,115.8 392.7,59 324,59 	"/>
	<polygon class="st5" points="288.7,116 356.1,116 322.4,60.2 	"/>
	<polygon class="st1" points="286.2,116 286.4,116 320.9,59 251.7,59 	"/>
	<polygon class="st5" points="320,57 286.3,1.2 252.5,57 	"/>
	<polygon class="st1" points="391.8,57 358.3,1.6 324.9,57 	"/>
	<polygon class="st0" points="394.4,57 428.9,0 359.7,0 394.2,57 	"/>
	<polygon class="st1" points="322.5,57 357,0 287.8,0 322.3,57 	"/>
	<polygon class="st1" points="466.3,414.6 432.9,470 499.8,470 	"/>
	<polygon class="st0" points="430.5,470 465,413 395.8,413 430.3,470 	"/>
	<polygon class="st1" points="500.7,354 432,354 466.3,410.8 	"/>
	<polygon class="st0" points="430.4,355.2 396.7,411 464.1,411 	"/>
	<polygon class="st2" points="394.3,414.2 360.5,470 428,470 	"/>
	<polygon class="st2" points="392.7,413 324,413 358.3,469.8 	"/>
	<polygon class="st0" points="322.4,414.2 288.7,470 356.1,470 	"/>
	<polygon class="st0" points="286.4,470 320.9,413 251.7,413 286.2,470 	"/>
	<polygon class="st2" points="286.3,355.2 252.5,411 320,411 	"/>
	<polygon class="st3" points="432.9,352 499.8,352 466.3,296.6 	"/>
	<polygon class="st1" points="430.3,352 430.5,352 465,295 395.8,295 	"/>
	<polygon class="st4" points="466.3,292.8 500.7,236 432,236 	"/>
	<polygon class="st0" points="396.7,293 464.1,293 430.4,237.2 	"/>
	<polygon class="st0" points="358.3,355.6 324.9,411 391.8,411 	"/>
	<polygon class="st0" points="394.4,411 428.9,354 359.7,354 394.2,411 	"/>
	<polygon class="st1" points="322.5,411 357,354 287.8,354 322.3,411 	"/>
	<polygon class="st4" points="360.5,352 428,352 394.3,296.2 	"/>
	<polygon class="st4" points="358.3,351.8 392.7,295 324,295 	"/>
	<polygon class="st1" points="288.7,352 356.1,352 322.4,296.2 	"/>
	<polygon class="st1" points="286.2,352 286.4,352 320.9,295 251.7,295 	"/>
	<polygon class="st3" points="252.5,293 320,293 286.3,237.2 	"/>
	<polygon class="st1" points="324.9,293 391.8,293 358.3,237.6 	"/>
	<polygon class="st0" points="394.2,293 394.4,293 428.9,236 359.7,236 	"/>
	<polygon class="st1" points="322.3,293 322.5,293 357,236 287.8,236 	"/>
	<polygon class="st0" points="432.9,706 499.8,706 466.3,650.6 	"/>
	<polygon class="st2" points="395.8,649 430.3,706 430.5,706 465,649 	"/>
	<polygon class="st0" points="500.7,590 432,590 466.3,646.8 	"/>
	<polygon class="st0" points="430.4,591.2 396.7,647 464.1,647 	"/>
	<polygon class="st0" points="360.5,706 428,706 394.3,650.2 	"/>
	<polygon class="st0" points="324,649 358.3,705.8 392.7,649 	"/>
	<polygon class="st1" points="288.7,706 356.1,706 322.4,650.2 	"/>
	<polygon class="st1" points="251.7,649 286.2,706 286.4,706 320.9,649 	"/>
	<polygon class="st1" points="286.3,591.2 252.5,647 320,647 	"/>
	<polygon class="st0" points="466.3,532.6 432.9,588 499.8,588 	"/>
	<polygon class="st0" points="430.5,588 465,531 395.8,531 430.3,588 	"/>
	<polygon class="st0" points="500.7,472 432,472 466.3,528.8 	"/>
	<polygon class="st0" points="430.4,473.2 396.7,529 464.1,529 	"/>
	<polygon class="st0" points="358.3,591.6 324.9,647 391.8,647 	"/>
	<polygon class="st2" points="394.4,647 428.9,590 359.7,590 394.2,647 	"/>
	<polygon class="st0" points="322.5,647 357,590 287.8,590 322.3,647 	"/>
	<polygon class="st0" points="394.3,532.2 360.5,588 428,588 	"/>
	<polygon class="st0" points="392.7,531 324,531 358.3,587.8 	"/>
	<polygon class="st0" points="322.4,532.2 288.7,588 356.1,588 	"/>
	<polygon class="st0" points="286.4,588 320.9,531 251.7,531 286.2,588 	"/>
	<polygon class="st3" points="286.3,473.2 252.5,529 320,529 	"/>
	<polygon class="st1" points="358.3,473.6 324.9,529 391.8,529 	"/>
	<polygon class="st0" points="394.4,529 428.9,472 359.7,472 394.2,529 	"/>
	<polygon class="st0" points="322.5,529 357,472 287.8,472 322.3,529 	"/>
	<polygon class="st0" points="216.9,234 283.8,234 250.3,178.6 	"/>
	<polygon class="st0" points="214.3,234 214.5,234 249,177 179.8,177 	"/>
	<polygon class="st2" points="250.3,174.8 284.7,118 216,118 	"/>
	<polygon class="st0" points="180.7,175 248.1,175 214.4,119.2 	"/>
	<polygon class="st1" points="144.5,234 212,234 178.3,178.2 	"/>
	<polygon class="st1" points="142.3,233.8 176.7,177 108,177 	"/>
	<polygon class="st1" points="140.1,234 106.4,178.2 72.7,234 	"/>
	<polygon class="st0" points="0.9,234 67.8,234 34.3,178.6 	"/>
	<polygon class="st0" points="70.4,234 104.9,177 35.7,177 70.2,234 	"/>
	<polygon class="st1" points="104,175 70.3,119.2 36.5,175 	"/>
	<polygon class="st0" points="68.7,118 0,118 34.3,174.8 	"/>
	<polygon class="st2" points="216.9,116 283.8,116 250.3,60.6 	"/>
	<polygon class="st2" points="214.3,116 214.5,116 249,59 179.8,59 	"/>
	<polygon class="st5" points="284.7,0 216,0 250.3,56.8 	"/>
	<polygon class="st2" points="248.1,57 214.4,1.2 180.7,57 	"/>
	<polygon class="st0" points="108.9,175 175.8,175 142.3,119.6 	"/>
	<polygon class="st0" points="178.2,175 178.4,175 212.9,118 143.7,118 	"/>
	<polygon class="st1" points="106.3,175 106.5,175 141,118 71.8,118 	"/>
	<polygon class="st1" points="144.5,116 212,116 178.3,60.2 	"/>
	<polygon class="st1" points="142.3,115.8 176.7,59 108,59 	"/>
	<polygon class="st1" points="72.7,116 140.1,116 106.4,60.2 	"/>
	<polygon class="st0" points="0.9,116 67.8,116 34.3,60.6 	"/>
	<polygon class="st0" points="70.4,116 104.9,59 35.7,59 70.2,116 	"/>
	<polygon class="st0" points="104,57 70.3,1.2 36.5,57 	"/>
	<polygon class="st0" points="68.7,0 0,0 34.3,56.8 	"/>
	<polygon class="st1" points="175.8,57 142.3,1.6 108.9,57 	"/>
	<polygon class="st0" points="178.4,57 212.9,0 143.7,0 178.2,57 	"/>
	<polygon class="st0" points="106.5,57 141,0 71.8,0 106.3,57 	"/>
	<polygon class="st0" points="250.3,414.6 216.9,470 283.8,470 	"/>
	<polygon class="st0" points="214.5,470 249,413 179.8,413 214.3,470 	"/>
	<polygon class="st2" points="284.7,354 216,354 250.3,410.8 	"/>
	<polygon class="st0" points="248.1,411 214.4,355.2 180.7,411 	"/>
	<polygon class="st0" points="212,470 178.3,414.2 144.5,470 	"/>
	<polygon class="st0" points="142.3,469.8 176.7,413 108,413 	"/>
	<polygon class="st0" points="140.1,470 106.4,414.2 72.7,470 	"/>
	<polygon class="st1" points="0.9,470 67.8,470 34.3,414.6 	"/>
	<polygon class="st1" points="70.4,470 104.9,413 35.7,413 70.2,470 	"/>
	<polygon class="st1" points="104,411 70.3,355.2 36.5,411 	"/>
	<polygon class="st4" points="68.7,354 0,354 34.3,410.8 	"/>
	<polygon class="st0" points="216.9,352 283.8,352 250.3,296.6 	"/>
	<polygon class="st0" points="214.3,352 214.5,352 249,295 179.8,295 	"/>
	<polygon class="st3" points="250.3,292.8 284.7,236 216,236 	"/>
	<polygon class="st1" points="180.7,293 248.1,293 214.4,237.2 	"/>
	<polygon class="st0" points="175.8,411 142.3,355.6 108.9,411 	"/>
	<polygon class="st0" points="178.2,411 178.4,411 212.9,354 143.7,354 	"/>
	<polygon class="st1" points="106.3,411 106.5,411 141,354 71.8,354 	"/>
	<polygon class="st0" points="212,352 178.3,296.2 144.5,352 	"/>
	<polygon class="st0" points="142.3,351.8 176.7,295 108,295 	"/>
	<polygon class="st1" points="140.1,352 106.4,296.2 72.7,352 	"/>
	<polygon class="st4" points="0.9,352 67.8,352 34.3,296.6 	"/>
	<polygon class="st1" points="70.4,352 104.9,295 35.7,295 70.2,352 	"/>
	<polygon class="st0" points="104,293 70.3,237.2 36.5,293 	"/>
	<polygon class="st0" points="68.7,236 0,236 34.3,292.8 	"/>
	<polygon class="st0" points="175.8,293 142.3,237.6 108.9,293 	"/>
	<polygon class="st1" points="178.2,293 178.4,293 212.9,236 143.7,236 	"/>
	<polygon class="st0" points="106.3,293 106.5,293 141,236 71.8,236 	"/>
	<polygon class="st2" points="216.9,706 283.8,706 250.3,650.6 	"/>
	<polygon class="st2" points="179.8,649 214.3,706 214.5,706 249,649 	"/>
	<polygon class="st1" points="284.7,590 216,590 250.3,646.8 	"/>
	<polygon class="st0" points="214.4,591.2 180.7,647 248.1,647 	"/>
	<polygon class="st0" points="144.5,706 212,706 178.3,650.2 	"/>
	<polygon class="st0" points="108,649 142.3,705.8 176.7,649 	"/>
	<polygon class="st4" points="72.7,706 140.1,706 106.4,650.2 	"/>
	<polygon class="st1" points="0.9,706 67.8,706 34.3,650.6 	"/>
	<polygon class="st4" points="35.7,649 70.2,706 70.4,706 104.9,649 	"/>
	<polygon class="st1" points="104,647 70.3,591.2 36.5,647 	"/>
	<polygon class="st0" points="68.7,590 0,590 34.3,646.8 	"/>
	<polygon class="st4" points="250.3,532.6 216.9,588 283.8,588 	"/>
	<polygon class="st4" points="214.5,588 249,531 179.8,531 214.3,588 	"/>
	<polygon class="st0" points="284.7,472 216,472 250.3,528.8 	"/>
	<polygon class="st4" points="214.4,473.2 180.7,529 248.1,529 	"/>
	<polygon class="st0" points="142.3,591.6 108.9,647 175.8,647 	"/>
	<polygon class="st2" points="178.4,647 212.9,590 143.7,590 178.2,647 	"/>
	<polygon class="st2" points="106.5,647 141,590 71.8,590 106.3,647 	"/>
	<polygon class="st0" points="178.3,532.2 144.5,588 212,588 	"/>
	<polygon class="st0" points="176.7,531 108,531 142.3,587.8 	"/>
	<polygon class="st2" points="140.1,588 106.4,532.2 72.7,588 	"/>
	<polygon class="st0" points="0.9,588 67.8,588 34.3,532.6 	"/>
	<polygon class="st0" points="70.4,588 104.9,531 35.7,531 70.2,588 	"/>
	<polygon class="st0" points="104,529 70.3,473.2 36.5,529 	"/>
	<polygon class="st0" points="68.7,472 0,472 34.3,528.8 	"/>
	<polygon class="st0" points="175.8,529 142.3,473.6 108.9,529 	"/>
	<polygon class="st0" points="178.4,529 212.9,472 143.7,472 178.2,529 	"/>
	<polygon class="st2" points="106.3,529 106.5,529 141,472 71.8,472 	"/>
</g>
</svg>
