<svg id="Capa_1" data-name="Capa 1" xmlns="http://www.w3.org/2000/svg" viewBox="0 0 555.3 555.33"><defs><style>.cls-1{fill:#fff;}</style></defs><title>fb</title><path class="cls-1" d="M658.76,490.63H586.45v1.83q0,40.22,0,80.44c0,1.84,0,1.85,1.93,1.85h68.21c2.17,0,2.17,0,2.17,2.18q0,105.33,0,210.67c0,2,0,2-2,2q-131.24,0-262.47,0c-16,0-26.13-9.66-29.92-19.73a28.1,28.1,0,0,1-1.93-9.81c0-.82,0-1.63,0-2.45q0-245.78,0-491.56c0-8.12,2.17-15.33,7.56-21.42A29.49,29.49,0,0,1,392,234.35c.53,0,1.06,0,1.58,0q246.43,0,492.86,0c13.25,0,22.72,6.18,28.51,18a28.75,28.75,0,0,1,2.65,12.83c0,.48,0,1,0,1.44q0,245.35,0,490.7c0,6.85-1.35,13.25-5.33,18.89-5.66,8-13.39,12.56-23.26,13.22-1.82.12-3.64.18-5.46.18H747.9c-2.16,0-2.16,0-2.16-2.19q0-105.19,0-210.38a3.17,3.17,0,0,1,0-1.28,2.16,2.16,0,0,1,1-1,4,4,0,0,1,1.42,0h67.49c2.07,0,2.11,0,2.37-2,1.06-8.06,2.09-16.13,3.14-24.19,1.11-8.54,2.26-17.07,3.36-25.61,1-7.83,2-15.66,3-23.49.32-2.51.68-5,1-7.54a11.64,11.64,0,0,0,0-1.31H747.71c-2,0-2,0-2-1.93,0-19,0-38,.11-57a47.5,47.5,0,0,1,2.35-14.4c3.24-10,10.28-15.84,20.2-18.61a72.9,72.9,0,0,1,19.35-2.23c13.91-.07,27.82,0,41.73,0h2c0-.58.08-1.08.08-1.59q0-36,0-72.09c0-1.08-.16-1.62-1.41-1.72-4.58-.37-9.14-1-13.72-1.28-8.22-.55-16.45-1.14-24.69-1.37-10.64-.3-21.3-.61-31.93-.29a114,114,0,0,0-42.4,9.21c-25.08,10.91-41.94,29.51-51.22,55.11a110.44,110.44,0,0,0-6.34,28.2c-.61,7.06-1,14.15-1.09,21.23-.15,18.9-.05,37.8-.05,56.7Z" transform="translate(-362.35 -234.34)"/></svg>